<svg height="78.557" viewBox="0 0 220.874 78.557" width="220.874" xmlns="http://www.w3.org/2000/svg"><g fill="#a4a2a2"><path d="m3.547 94.225-1.415 2.908-1.432-2.908h-.7l1.808 3.565v2.51h.648v-2.51l1.791-3.565z" transform="translate(0 -21.741)"/><path d="m14 99.889a2.279 2.279 0 0 1 -3.111 0c-.587-.587-.623-1.13-.623-2.56s.035-1.972.623-2.559a2.279 2.279 0 0 1 3.111 0c.587.587.631 1.131.631 2.559s-.045 1.971-.631 2.56m-.473-4.7a1.544 1.544 0 0 0 -2.156 0c-.395.4-.439.858-.439 2.137s.044 1.736.439 2.139a1.546 1.546 0 0 0 2.156 0c.394-.4.439-.858.439-2.139s-.044-1.735-.439-2.137" transform="translate(-2.392 -21.946)"/><path d="m23.705 100.518a2.06 2.06 0 0 1 -2.173-2.112v-4.181h.668v4.129a1.513 1.513 0 1 0 3.024 0v-4.129h.666v4.181a2.067 2.067 0 0 1 -2.182 2.112" transform="translate(-5.018 -21.962)"/><path d="m36.639 100.465-1.421-2.765h-1.5v2.769h-.666v-6.24h2.392a1.689 1.689 0 0 1 1.85 1.736 1.618 1.618 0 0 1 -1.359 1.673l1.481 2.831zm-1.254-5.645h-1.665v2.288h1.665a1.148 1.148 0 1 0 0-2.288" transform="translate(-7.704 -21.962)"/><path d="m50.262 100.466v-6.241h3.874v.6h-3.208v2.2h2.735v.6h-2.735v2.245h3.208v.6z" transform="translate(-11.715 -21.962)"/><path d="m64.541 99.809a2.066 2.066 0 0 1 -1.639.657h-2.138v-6.241h2.136a2.067 2.067 0 0 1 1.639.658 3.535 3.535 0 0 1 .553 2.463 3.538 3.538 0 0 1 -.553 2.463m-.525-4.532a1.565 1.565 0 0 0 -1.227-.456h-1.357v5.049h1.359a1.564 1.564 0 0 0 1.227-.455 5.4 5.4 0 0 0 0-4.138" transform="translate(-14.162 -21.962)"/><path d="m74.159 100.518a2.06 2.06 0 0 1 -2.173-2.112v-4.181h.666v4.129a1.513 1.513 0 1 0 3.024 0v-4.129h.666v4.181a2.067 2.067 0 0 1 -2.182 2.112" transform="translate(-16.778 -21.962)"/><path d="m85.425 100.5a2.138 2.138 0 0 1 -1.56-.614c-.587-.587-.622-1.13-.622-2.559s.035-1.972.622-2.56a2.141 2.141 0 0 1 1.56-.613 2.113 2.113 0 0 1 2.165 1.858h-.684a1.514 1.514 0 0 0 -2.559-.824c-.394.4-.438.859-.438 2.138s.044 1.735.438 2.139a1.529 1.529 0 0 0 2.577-.824h.666a2.118 2.118 0 0 1 -2.165 1.858" transform="translate(-19.402 -21.947)"/><path d="m97.966 100.465-.5-1.41h-2.725l-.5 1.41h-.711l2.3-6.24h.561l2.287 6.24zm-1.849-5.285-1.174 3.295h2.331z" transform="translate(-21.8 -21.962)"/><path d="m106.356 94.821v5.645h-.666v-5.645h-1.806v-.6h4.277v.6z" transform="translate(-24.213 -21.962)"/><path d="m88.011 72.263h.666v6.241h-.666z"/><path d="m125.029 99.889a2.279 2.279 0 0 1 -3.111 0c-.587-.587-.623-1.13-.623-2.56s.035-1.972.623-2.559a2.279 2.279 0 0 1 3.111 0c.587.587.631 1.131.631 2.559s-.044 1.973-.631 2.56m-.472-4.7a1.545 1.545 0 0 0 -2.157 0c-.395.4-.439.858-.439 2.137s.044 1.736.439 2.139a1.547 1.547 0 0 0 2.157 0c.394-.4.438-.858.438-2.139s-.044-1.735-.438-2.137" transform="translate(-28.271 -21.946)"/><path d="m136.638 100.466-3.313-5v5h-.666v-6.241h.631l3.312 4.987v-4.987h.666v6.241z" transform="translate(-30.92 -21.962)"/><path d="m148.3 100.465-.5-1.41h-2.725l-.5 1.41h-.711l2.3-6.24h.561l2.287 6.24zm-1.849-5.285-1.174 3.295h2.331z" transform="translate(-33.532 -21.962)"/><path d="m155.769 100.466v-6.241h.666v5.645h3.19v.6z" transform="translate(-36.306 -21.962)"/><path d="m173.473 100.5a2.7 2.7 0 0 1 -2.131-.823l.448-.448a2.135 2.135 0 0 0 1.7.675c.921 0 1.482-.421 1.482-1.157a.98.98 0 0 0 -.307-.781 1.351 1.351 0 0 0 -.815-.307l-.728-.105a2.2 2.2 0 0 1 -1.139-.473 1.486 1.486 0 0 1 -.483-1.174 1.76 1.76 0 0 1 2-1.753 2.542 2.542 0 0 1 1.858.683l-.429.429a1.942 1.942 0 0 0 -1.455-.543c-.841 0-1.324.465-1.324 1.165a.921.921 0 0 0 .281.728 1.673 1.673 0 0 0 .816.324l.726.114a1.889 1.889 0 0 1 1.132.448 1.571 1.571 0 0 1 .525 1.226c0 1.1-.85 1.771-2.156 1.771" transform="translate(-39.936 -21.947)"/><path d="m186 100.465-.5-1.41h-2.726l-.5 1.41h-.709l2.3-6.24h.561l2.288 6.24zm-1.849-5.285-1.176 3.295h2.331z" transform="translate(-42.319 -21.962)"/><path d="m194.375 100.466h-.544l-2.05-6.241h.7l1.621 5.049 1.622-5.049h.7z" transform="translate(-44.7 -21.962)"/><path d="m155.687 72.263h.667v6.241h-.667z"/><path d="m213.748 100.466-3.312-5v5h-.666v-6.241h.631l3.313 4.987v-4.987h.666v6.241z" transform="translate(-48.892 -21.962)"/><path d="m225.31 99.784a2.2 2.2 0 0 1 -1.666.719 2.142 2.142 0 0 1 -1.56-.614c-.587-.588-.623-1.13-.623-2.56s.035-1.972.623-2.559a2.235 2.235 0 0 1 3.743 1.253h-.667a1.491 1.491 0 0 0 -1.516-1.27 1.452 1.452 0 0 0 -1.078.439c-.395.4-.439.858-.439 2.137s.044 1.736.439 2.139a1.454 1.454 0 0 0 1.078.438 1.52 1.52 0 0 0 1.183-.534 1.659 1.659 0 0 0 .351-1.13v-.483h-1.534v-.569h2.2v.99a2.118 2.118 0 0 1 -.535 1.6" transform="translate(-51.618 -21.946)"/><path d="m234.405 100.5a2.7 2.7 0 0 1 -2.13-.823l.448-.448a2.135 2.135 0 0 0 1.7.675c.921 0 1.482-.421 1.482-1.157a.98.98 0 0 0 -.307-.781 1.351 1.351 0 0 0 -.815-.307l-.728-.105a2.2 2.2 0 0 1 -1.139-.473 1.486 1.486 0 0 1 -.483-1.174 1.76 1.76 0 0 1 2-1.753 2.542 2.542 0 0 1 1.858.683l-.429.429a1.943 1.943 0 0 0 -1.455-.543c-.841 0-1.324.465-1.324 1.165a.921.921 0 0 0 .281.728 1.673 1.673 0 0 0 .816.324l.726.114a1.888 1.888 0 0 1 1.132.448 1.571 1.571 0 0 1 .525 1.226c0 1.1-.85 1.771-2.156 1.771" transform="translate(-54.138 -21.947)"/><path d="m251.715 97.9h-1.656v2.568h-.667v-6.24h2.323a1.839 1.839 0 1 1 0 3.673m-.052-3.077h-1.6v2.476h1.6a1.242 1.242 0 1 0 0-2.48" transform="translate(-58.128 -21.962)"/><path d="m260.312 100.466v-6.241h.667v5.645h3.19v.6z" transform="translate(-60.673 -21.962)"/><path d="m274.521 100.465-.5-1.41h-2.721l-.5 1.41h-.709l2.3-6.24h.561l2.288 6.24zm-1.849-5.285-1.172 3.295h2.332z" transform="translate(-62.951 -21.962)"/><path d="m285.967 100.466-3.312-5v5h-.666v-6.241h.631l3.313 4.987v-4.987h.666v6.241z" transform="translate(-65.725 -21.962)"/></g><path d="m64.378 56.268v-21.268c0-4.792-3.038-6.413-5.8-6.413-2.7 0-5.873 1.621-5.873 6.211v21.47h-8.78v-21.268c0-4.792-3.038-6.413-5.8-6.413s-5.878 1.625-5.878 6.413v21.268h-8.775v-35.168h8.573v3.24a12.306 12.306 0 0 1 8.776-3.646 10.894 10.894 0 0 1 9.314 4.456 13.412 13.412 0 0 1 10.531-4.456 12.267 12.267 0 0 1 8.64 3.105 13.258 13.258 0 0 1 3.848 9.991v22.478z" fill="#1a1818" transform="translate(-5.47 -4.824)"/><path d="m107.615 58.151a12.521 12.521 0 0 1 -2.632 4.523c-2.025 2.025-4.658 2.7-7.561 2.7h-3.443v-7.9h2.026c2.5 0 3.509-.607 4.387-3.172l1.485-4.32-12.015-32.669h9.248l7.29 21.735 11.4-34.6h9.248z" fill="#1a1818" transform="translate(-20.945 -1.037)"/><path d="m165.544 48.962c-2.16 2.16-5.6 3.914-10.6 3.914s-8.641-1.755-10.733-3.847c-2.97-2.97-3.644-6.48-3.915-9.991h8.776c.471 3.78 2.227 5.94 5.872 5.94a5.657 5.657 0 0 0 4.186-1.551c1.551-1.553 1.89-4.118 1.89-7.155 0-5.535-1.62-8.64-5.873-8.64-3.576 0-5.2 2.025-5.806 3.915h-8.031v-27.136h27.406v7.9h-19.441v10.326a11.019 11.019 0 0 1 7.222-2.43c3.983 0 7.02 1.282 8.978 3.239 3.781 3.781 4.322 8.3 4.322 12.826 0 5.4-.742 9.18-4.253 12.69" fill="#005fc5" transform="translate(-32.7 -1.029)"/><path d="m185.2 50.919v-7.9l17.956-20.858c1.756-2.092 2.5-3.578 2.5-5.806 0-3.578-2.094-6.007-5.806-6.007-2.9 0-5.873 1.485-5.873 6.142h-8.777c0-8.776 6.413-14.041 14.649-14.041 8.5 0 14.579 5.333 14.579 13.973 0 4.658-1.822 7.155-5.128 11l-13.431 15.6h18.563v7.9z" fill="#e95d15" transform="translate(-43.167 -.572)"/><path d="m256.116 30.129-10.192 20.79h-9.518l9.994-19.846a9.5 9.5 0 0 1 -3.576.608c-6.48 0-12.69-5.332-12.69-14.242 0-9.451 6.48-14.986 14.984-14.986s14.982 5.332 14.982 14.847c0 4.387-1.823 8.437-3.983 12.825m-11-19.778c-3.576 0-6.208 2.565-6.208 7.02 0 4.253 2.5 7.021 6.208 7.021 3.579 0 6.211-2.565 6.211-7.021s-2.631-7.02-6.211-7.02" fill="#00a73c" transform="translate(-53.638 -.572)"/><path d="m280.045 4.259a4.378 4.378 0 1 1 -4.364-4.259 4.28 4.28 0 0 1 4.364 4.259m-7.662 0a3.3 3.3 0 0 0 3.325 3.4 3.262 3.262 0 0 0 3.247-3.377 3.288 3.288 0 1 0 -6.572-.026m2.624 2.234h-.987v-4.256a8.592 8.592 0 0 1 1.637-.13 2.655 2.655 0 0 1 1.48.312 1.18 1.18 0 0 1 .416.935 1.09 1.09 0 0 1 -.883.987v.052a1.256 1.256 0 0 1 .78 1.038 3.266 3.266 0 0 0 .311 1.065h-1.065a3.655 3.655 0 0 1 -.337-1.039c-.078-.468-.337-.676-.883-.676h-.468zm.026-2.416h.467c.545 0 .987-.182.987-.623 0-.39-.285-.65-.909-.65a2.348 2.348 0 0 0 -.545.052z" fill="#00a73c" transform="translate(-63.232)"/><path d="m0 0h220.873v78.556h-220.873z" fill="none"/></svg>