<svg viewBox="0 0 84 24" id="sofi-logo-new-blue" xmlns="http://www.w3.org/2000/svg"><path d="M24.7 7.1c-4.4 0-8 3.6-8 8s3.6 8 8 8 8-3.6 8-8-3.6-8-8-8zm3.9 7.9c0 2.2-1.7 4-3.8 4S21 17.2 21 15s1.7-4 3.8-4 3.8 1.8 3.8 4zm24.1-7.6c-.1-.1-.2-.1-.3-.1h-3.2c-.2 0-.4.2-.4.4v14.5c0 .1 0 .2.1.3.1.1.2.1.3.1h3.2c.2 0 .4-.2.4-.4V7.7c0-.1 0-.2-.1-.3zm-1.9-2c1.2 0 2.2-1 2.2-2.2C53.1 2 52 1 50.8 1c-1.2 0-2.2 1-2.2 2.2 0 1.3 1 2.2 2.2 2.2zm-4.3-4.1H34.8c-.2 0-.4.2-.4.4v20.5c0 .1 0 .2.1.3.1.1.2.1.3.1H38c.2 0 .4-.2.4-.4v-8.3h7.2c.1 0 .2 0 .3-.1.1-.1.1-.2.1-.3v-3c0-.2-.2-.4-.4-.4h-7.2v-5h8.1c.1 0 .2 0 .3-.1.1-.1.1-.2.1-.3v-3c0-.2-.2-.4-.4-.4zM9.2 10.2C6 8.8 5 8.2 5 7c0-1.6 1.5-2.1 2.9-2.1 1.5 0 3.1.8 3.1 3 0 .2.1.3.3.3h3.5c.1-.1.2-.2.2-.3 0-4-2.9-6.9-7.1-6.9C3.7 1 1 3.4 1 7c0 4.3 3.2 5.6 6.3 6.8l.2.1c2.9 1.1 3.9 1.6 3.9 3 0 1.9-2 2.2-3.1 2.2-2.1 0-3.7-1.5-3.7-3.5v-.2c0-.2-.1-.3-.3-.3H.8c-.1 0-.3.1-.3.3v.3c0 4.4 3.2 7.4 7.7 7.4 4.3 0 7.2-2.5 7.2-6.1.1-3.7-1.8-5-6.2-6.8zM83.5 22c0 .6-.4 1-1 1s-1-.4-1-1 .4-1 1-1 1 .4 1 1zm-1.8 0c0 .5.3.8.8.8s.8-.3.8-.8-.3-.8-.8-.8-.8.3-.8.8zm1.2-.2c0 .1-.1.2-.2.3l.2.4h-.3l-.2-.4h-.1v.4h-.2v-1h.4c.2 0 .4.1.4.3zm-.5-.1v.3h.1c.1 0 .2-.1.2-.1 0-.1-.1-.1-.2-.1h-.1zM78.3 1.9c1.4 0 2.5 1.1 2.5 2.5s-1.1 2.5-2.5 2.5-2.5-1.1-2.5-2.5 1.1-2.5 2.5-2.5m0-.9c-1.9 0-3.5 1.6-3.5 3.5S76.4 8 78.3 8s3.5-1.6 3.5-3.5S80.2 1 78.3 1z" fill="#00A2C7"></path><ellipse transform="rotate(-28.538 78.28 12.007)" cx="78.3" cy="12" rx="3.5" ry="3.5" fill="#00A2C7"></ellipse><ellipse transform="rotate(-28.538 78.278 19.517)" cx="78.3" cy="19.5" rx="3.5" ry="3.5" fill="#00A2C7"></ellipse><path d="M70.8 9.5c.7 0 1.3.3 1.8.7.5.5.7 1.1.7 1.8 0 1.4-1.1 2.5-2.5 2.5-.7 0-1.3-.3-1.8-.7-.5-.5-.7-1.1-.7-1.8-.1-1.4 1.1-2.5 2.5-2.5m0-1c-1.9 0-3.5 1.6-3.5 3.5s1.6 3.5 3.5 3.5 3.5-1.6 3.5-3.5-1.6-3.5-3.5-3.5z" fill="#00A2C7"></path><ellipse transform="rotate(-66.11 63.267 12.004)" cx="63.3" cy="12" rx="3.5" ry="3.5" fill="#00A2C7"></ellipse><ellipse transform="rotate(-66.11 70.777 4.494)" cx="70.8" cy="4.5" rx="3.5" ry="3.5" fill="#00A2C7"></ellipse><ellipse transform="rotate(-66.11 63.267 4.494)" cx="63.3" cy="4.5" rx="3.5" ry="3.5" fill="#00A2C7"></ellipse><ellipse transform="rotate(-66.11 70.777 19.514)" cx="70.8" cy="19.5" rx="3.5" ry="3.5" fill="#00A2C7"></ellipse><path d="M63.3 17c.7 0 1.3.3 1.8.7.5.5.7 1.1.7 1.8 0 1.4-1.1 2.5-2.5 2.5s-2.5-1.1-2.5-2.5c-.1-1.4 1.1-2.5 2.5-2.5m0-1c-1.9 0-3.5 1.6-3.5 3.5s1.6 3.5 3.5 3.5 3.5-1.6 3.5-3.5-1.6-3.5-3.5-3.5z" fill="#00A2C7"></path></svg>
