<?xml version="1.0" encoding="UTF-8"?> <!-- Generator: Adobe Illustrator 22.0.1, SVG Export Plug-In . SVG Version: 6.00 Build 0) --> <svg xmlns="http://www.w3.org/2000/svg" xmlns:xlink="http://www.w3.org/1999/xlink" version="1.1" id="Layer_1" x="0px" y="0px" viewBox="0 0 3072 484.8" style="enable-background:new 0 0 3072 484.8;" xml:space="preserve"> <style type="text/css"> .st0{fill:#f2cd14;} </style> <g id="Yellow_Logo_1_"> <g id="Gray_1_2_"> <g> <g> <path class="st0" d="M2340,133.6h-87.4c-41.1,0-77.1,33.5-82.8,74.7l-16.7,120.4c-5.8,41.2,20.9,74.7,62.1,74.7h87.3 c41.2,0,79.3-33.5,85-74.7l16.8-120.4C2409.9,167.1,2381.1,133.6,2340,133.6z M2351.1,208.3l-16.8,120.4 c-1.8,13.7-14.6,25-28.3,25h-80.7c-13.7,0-21.1-11.2-19.2-24.9l16.7-120.4c1.9-13.7,12.5-25,26.2-25h80.7 C2343.4,183.3,2353.1,194.6,2351.1,208.3z"></path> <g> <path class="st0" d="M236.3,108.7c13.7,0,23.3,11.2,21.3,24.9l-28.4,195c-1.8,13.7-14.6,25-28.3,25h-97.2 c-13.6,0-21.1-11.2-19.2-24.9l28.4-195c1.9-13.7,12.5-25,26.2-25h99.6 M245.6,59H144c-41.2,0-77.2,33.5-82.9,74.7l-28.4,195 c-5.7,41.2,21,74.7,62.1,74.7h101.8c41.1,0,79.3-33.5,85-74.7l28.4-195C315.6,92.5,286.8,59,245.6,59L245.6,59z"></path> </g> <path class="st0" d="M1945.8,291.1l101.7,2.5c41.7,0,80.4-33.5,86.1-74.6l11.2-83c5.8-41.7-33-77-74.1-77h-101.1 c-40.8,0-71.1,35.3-77,77l-45.2,325.1c31.1-1,53.5-14.3,57.7-33.2l40.5-291.9c2-14,16.2-27.3,29.3-27.3h94.5 c13.4,0,24.1,13.3,22.2,27.3l-11.2,83c-1.9,13.2-15.6,24.8-29.5,24.8h-98.7L1945.8,291.1z"></path> <path class="st0" d="M427.4,137.4l77.9-3.8c41.7,0,71.1,33.5,65.4,74.6l-16.3,118.2c-5.7,41.7-45.3,77.1-86.4,77.1h-80.1 c-40.8,0-70.4-35.3-64.7-77.1L362,38.6c0,0,25.4-12.2,57.5-12.2l-41.1,299.9c-2,14,8.6,27.3,21.7,27.3h72.6 c13.4,0,27.8-13.3,29.8-27.3l16.3-118.1c1.8-13.2-8.7-24.8-22.6-24.8h-76.4L427.4,137.4z"></path> <path class="st0" d="M1043.4,133.6h-87.3c-41.2,0-77.1,33.5-82.8,74.7l-16.8,120.4c-5.7,41.2,23.5,74.7,62.1,74.7 c100.4,0,148.8-10.4,148.8-10.4l6.2-39.3H930.9c-13.7,0-21.1-11.2-19.3-24.9l5.2-37.2c26.3,0,146,0,159.2,0 c14.7,0,21.2-11.3,23.3-25.5c2-14.1,8.4-57.6,8.4-57.6C1113.4,167.2,1084.6,133.6,1043.4,133.6z M1052.5,208.3l-5.1,37.3H923.2 l5.2-37.2c1.9-13.7,12.5-25,26.1-25h76.5C1044.8,183.3,1054.4,194.6,1052.5,208.3z"></path> <path class="st0" d="M1724.1,133.6h-87.3c-41.2,0-77.1,33.5-82.9,74.7l-16.7,120.4c-5.8,41.2,23.5,74.7,62,74.7 c100.4,0,148.8-10.4,148.8-10.4l6.2-39.3h-142.6c-13.7,0-21.1-11.2-19.2-24.9l5.2-37.2c26.3,0,146.1,0,159.1,0 c14.7,0,21.4-11.3,23.3-25.5c1.9-14.1,8.4-57.6,8.4-57.6C1794,167.2,1765.2,133.6,1724.1,133.6z M1733.2,208.3l-5.1,37.3h-124.1 l5.2-37.2c1.9-13.7,12.4-25,26.1-25h76.5C1725.5,183.3,1735.1,194.6,1733.2,208.3z"></path> <path class="st0" d="M2817.8,134.1l-7.1,50H2942c0,0,23.9,0,52.1,0c28.1,0,37.8-50,37.8-50H2817.8z M2854.8,403.3h55.9 l28.8-202.2h-55.9L2854.8,403.3z"></path> <path class="st0" d="M594.8,328.7c-5.7,41.2,20.9,74.7,62.1,74.7h80.7c41.2,0,79.3-33.5,85.1-74.7c0,0,5.1-32.3,5.6-36.1 c3.3-24-12.2-39.2-35.1-42.1c-15.2-1.9-121.3-15.2-126.8-16.1c-5.6-1-4.5-9.9-4.5-9.9l1.6-16.2c1.9-13.7,12.5-25,26.1-25H766 c13.7,0,23.3,11.3,21.4,24.9c0,0,0.2,7.4,7.6,11.6c7.3,4.2,42,2.9,42,2.9l2.3-14.4c5.7-41.2-23.1-74.8-64.3-74.8h-80.7 c-41.1,0-77.1,33.5-82.8,74.7c0,0-3.2,22.6-3.5,26.2c-2.4,21.8,12,44,34.5,48.1c14.3,2.7,120.9,15.5,126.8,16.3 c5.9,0.7,5.4,6.4,5.4,6.4l-3.9,23.4c-1.9,13.7-14.7,24.9-28.4,24.9h-76.5c-13.6,0-20.6-11.3-19.2-24.9 c1.1-9.9-16-15.7-49.7-15.7L594.8,328.7z"></path> <path class="st0" d="M2619.3,147.8l-3.2-13.7h-37.7L2540,403.4h53.4l28.7-207.7c0,0,70-3.4,80.8-4.2 c11.7-0.9,23.3,5.8,21.6,18.6c-1.7,12.8-26.3,193.3-26.3,193.3h53.7c0,0,27.5-204,28.4-216.7c1.7-24.9-24.1-52.6-61.8-48.4 C2707.2,139.7,2619.3,147.8,2619.3,147.8z"></path> <path class="st0" d="M2522.7,133.6c-38.4,0-54.7,11.4-57.9,33.5c-3.1,22.1-33.6,236.2-33.6,236.2h54.3L2522.7,133.6z"></path> <g> <path class="st0" d="M1536.5,133.6c-40.8,0-58.3,3.7-65.9,24.9c-9.7,27-57.1,170.1-57.1,170.1l-37.1-195h-56.1l57.4,269.7 c0,0,22.7-0.1,36-0.1c13.3,0,21.9-9.7,28.4-26.4C1448.4,360.2,1536.5,133.6,1536.5,133.6z"></path> </g> </g> <path class="st0" d="M1227.6,140.5c-7.5,2.8-15.9,10.6-22.2,21.7l-6.2-28.4h-41.5l-38.4,269.8h52l26.4-187.7v0.3 c0,0,18.4-30.3,70.2-30.3c25.2,0,26.2-52.4,26.2-52.4S1249.1,132.6,1227.6,140.5z"></path> </g> </g> </g> </svg>
